{"title":"Rakhtbeej (2012).720p.DVDRip By K@rtik [EXD Exclusive]","uid":7627253,"size":953736670,"categoryP":"video","categoryS":"hd___movies","magnet":"?xt=urn:btih:eddc29ea0c10b14e8b6b4b3a5b71346f71d35d7d&amp;dn=Rakhtbeej+%282012%29.720p.DVDRip+By+K%40rtik+%5BEXD+Exclusive%5D&amp;tr=udp%3A%2F%2Ftracker.openbittorrent.com%3A80&amp;tr=udp%3A%2F%2Fopen.demonii.com%3A1337&amp;tr=udp%3A%2F%2Ftracker.coppersurfer.tk%3A6969&amp;tr=udp%3A%2F%2Fexodus.desync.com%3A6969","seeders":2,"leechers":0,"uploader":"TeamExD","files":4,"time":1347456550,"description":"Format                                   : Matroska\nFormat version                           : Version 2\nFile size                                : 897 MiB\nDuration                                 : 1h 51mn\nOverall bit rate                         : 1 127 Kbps\nMovie name                               : Rakhtbeej (2012).720p.DVDRip By K@rtik \n[EXD Exclusive]\nCodec ID                                 : V_MPEG4/ISO/AVC\nDuration                                 : 1h 51mn\nBit rate                                 : 742 Kbps\nWidth                                    : 1 280 pixels\nHeight                                   : 544 pixels\nDisplay aspect ratio                     : 2.35:1\nFrame rate                               : 29.970 fps\nColor space                              : YUV\nChroma subsampling                       : 4:2:0\nBit depth                                : 8 bits\nScan type                                : Progressive\nBits/(Pixel*Frame)                       : 0.036\nStream size                              : 573 MiB (64%)\nTitle                                    : K@rtik\nCodec ID                                 : A_AC3\nDuration                                 : 1h 51mn\nBit rate mode                            : Constant\nBit rate                                 : 384 Kbps\nChannel(s)                               : 6 channels\nChannel positions                        : Front: L C R, Side: L R, LFE\nSampling rate                            : 48.0 KHz\nBit depth                                : 16 bits\nStream size                              : 305 MiB (34%)\nTitle                                    : K@rtik\nLanguage                                 : Hindi &lt;a href=&quot;\nhttp://img6.imageshack.us/img6/1746/45602290.png&quot; rel=&quot;nofollow&quot; target=&quot;_NEW&quot;&gt;\nhttp://img6.imageshack.us/img6/1746/45602290.png&lt;/a&gt; &lt;a href=&quot;\nhttp://img268.imageshack.us/img268/442/34194790.png&quot; rel=&quot;nofollow&quot; target=&quot;_NEW&quot;&gt;\nhttp://img268.imageshack.us/img268/442/34194790.png&lt;/a&gt; &lt;a href=&quot;\nhttp://img213.imageshack.us/img213/3246/93322609.png&quot; rel=&quot;nofollow&quot; target=&quot;_NEW&quot;&gt;\nhttp://img213.imageshack.us/img213/3246/93322609.png&lt;/a&gt; &lt;a href=&quot;\nhttp://img13.imageshack.us/img13/327/39816450.png&quot; rel=&quot;nofollow&quot; target=&quot;_NEW&quot;&gt;\nhttp://img13.imageshack.us/img13/327/39816450.png&lt;/a&gt; &lt;a href=&quot;\nhttp://img405.imageshack.us/img405/1975/76590139.png&quot; rel=&quot;nofollow&quot; target=&quot;_NEW&quot;&gt;\nhttp://img405.imageshack.us/img405/1975/76590139.png&lt;/a&gt; &lt;a href=&quot;\nhttp://img23.imageshack.us/img23/8976/20272582.png&quot; rel=&quot;nofollow&quot; target=&quot;_NEW&quot;&gt;\nhttp://img23.imageshack.us/img23/8976/20272582.png&lt;/a&gt; &lt;a href=&quot;\nhttp://img152.imageshack.us/img152/4458/25250701.png&quot; rel=&quot;nofollow&quot; target=&quot;_NEW&quot;&gt;\nhttp://img152.imageshack.us/img152/4458/25250701.png&lt;/a&gt; &lt;a href=&quot;\nhttp://img339.imageshack.us/img339/2127/85427801.png&quot; rel=&quot;nofollow&quot; target=&quot;_NEW&quot;&gt;\nhttp://img339.imageshack.us/img339/2127/85427801.png&lt;/a&gt; &lt;a href=&quot;\nhttp://img545.imageshack.us/img545/2198/82057210.png&quot; rel=&quot;nofollow&quot; target=&quot;_NEW&quot;&gt;\nhttp://img545.imageshack.us/img545/2198/82057210.png&lt;/a&gt; &lt;a href=&quot;\nhttp://img651.imageshack.us/img651/6325/75695155.png&quot; rel=&quot;nofollow&quot; target=&quot;_NEW&quot;&gt;\nhttp://img651.imageshack.us/img651/6325/75695155.png&lt;/a&gt; &lt;a href=&quot;\nhttp://img839.imageshack.us/img839/6460/12379280.png&quot; rel=&quot;nofollow&quot; target=&quot;_NEW&quot;&gt;\nhttp://img839.imageshack.us/img839/6460/12379280.png&lt;/a&gt; &lt;a href=&quot;\nhttp://img836.imageshack.us/img836/4072/96053518.png&quot; rel=&quot;nofollow&quot; target=&quot;_NEW&quot;&gt;\nhttp://img836.imageshack.us/img836/4072/96053518.png&lt;/a&gt;","torrent":{"xt":"urn:btih:eddc29ea0c10b14e8b6b4b3a5b71346f71d35d7d","amp;dn":"Rakhtbeej+%282012%29.720p.DVDRip+By+K%40rtik+%5BEXD+Exclusive%5D","amp;tr":["udp%3A%2F%2Ftracker.openbittorrent.com%3A80","udp%3A%2F%2Fopen.demonii.com%3A1337","udp%3A%2F%2Ftracker.coppersurfer.tk%3A6969","udp%3A%2F%2Fexodus.desync.com%3A6969"],"infoHash":"eddc29ea0c10b14e8b6b4b3a5b71346f71d35d7d","infoHashBuffer":{"type":"Buffer","data":[237,220,41,234,12,16,177,78,139,107,75,58,91,113,52,111,113,211,93,125]},"announce":[],"urlList":[]}}